<?xml version="1.0" encoding="iso-8859-1"?>
<!-- Generator: Adobe Illustrator 19.0.0, SVG Export Plug-In . SVG Version: 6.00 Build 0)  -->
<svg version="1.1" id="Capa_1" xmlns="http://www.w3.org/2000/svg" xmlns:xlink="http://www.w3.org/1999/xlink" x="0px" y="0px"
	 viewBox="0 0 512.001 512.001" style="enable-background:new 0 0 512.001 512.001;" xml:space="preserve">
<path style="fill:#00E890;" d="M380.552,15.647l-2.162-8.852l-8.852-2.162c-3.054-0.746-75.195-17.838-111.777,18.744
	s-19.489,108.724-18.744,111.776l2.162,8.852l8.852,2.162c1.492,0.364,19.485,4.633,41.763,4.633
	c23.309,0,51.31-4.673,70.014-23.377C398.39,90.841,381.297,18.7,380.552,15.647z"/>
<path style="fill:#00C47A;" d="M380.552,15.647l-2.162-8.852l-137.211,137.21l8.852,2.162c1.492,0.364,19.485,4.633,41.763,4.633
	c23.309,0,51.31-4.673,70.014-23.377C398.39,90.841,381.297,18.7,380.552,15.647z"/>
<path style="fill:#56412D;" d="M271.001,196.529h-30v-29.523c0-34.904-13.592-67.719-38.273-92.399l21.213-21.214
	c30.348,30.347,47.061,70.696,47.061,113.613v29.523H271.001z"/>
<circle style="fill:#FFFFFF;" cx="256" cy="317.83" r="179.17"/>
<path style="fill:#FFF1AB;" d="M256,138.667c98.951,0,179.167,80.216,179.167,179.167C435.167,416.784,354.951,497,256,497V138.667z
	"/>
<path style="fill:#FFAE33;" d="M256.001,512c-107.064,0-194.167-87.102-194.167-194.167s87.103-194.167,194.167-194.167
	c107.063,0,194.166,87.103,194.166,194.167S363.064,512,256.001,512z M256.001,153.667c-90.522,0-164.167,73.645-164.167,164.167
	C91.834,408.355,165.479,482,256.001,482c90.521,0,164.166-73.645,164.166-164.167C420.167,227.312,346.522,153.667,256.001,153.667
	z"/>
<circle style="fill:#FFFFFF;" cx="256" cy="317.83" r="118.62"/>
<path style="fill:#FFAE33;" d="M256.001,451.458c-73.681,0-133.625-59.944-133.625-133.625s59.944-133.625,133.625-133.625
	s133.624,59.944,133.624,133.625S329.681,451.458,256.001,451.458z"/>
<path style="fill:#FF7700;" d="M256.001,451.458c0-54.254,0-217.554,0-267.25c73.681,0,133.624,59.944,133.624,133.625
	S329.681,451.458,256.001,451.458z"/>
<path style="fill:#FF7700;" d="M140.25,384.645c21.747-12.555,68.613-39.614,115.722-66.812l-115.695-66.797
	C117.274,291.032,115.567,341.894,140.25,384.645z"/>
<g>
	<path style="fill:#FF4F19;" d="M256.001,451.458c0-25.111,0-79.227,0-133.625l115.695,66.797
		C348.56,424.549,305.365,451.458,256.001,451.458z"/>
	<path style="fill:#FF4F19;" d="M256.001,184.209c0,25.111,0,79.227,0,133.624l115.695-66.797
		C348.56,211.118,305.365,184.209,256.001,184.209z"/>
</g>
<path style="fill:#FF7700;" d="M256.001,123.667c-0.236,0-0.47,0.008-0.706,0.009v30c0.236-0.001,0.47-0.009,0.706-0.009
	c90.521,0,164.166,73.645,164.166,164.167s-73.645,164.167-164.166,164.167c-0.236,0-0.47-0.008-0.706-0.009v30
	c0.236,0.001,0.47,0.009,0.706,0.009c107.063,0,194.166-87.102,194.166-194.167S363.064,123.667,256.001,123.667z"/>
<g>
</g>
<g>
</g>
<g>
</g>
<g>
</g>
<g>
</g>
<g>
</g>
<g>
</g>
<g>
</g>
<g>
</g>
<g>
</g>
<g>
</g>
<g>
</g>
<g>
</g>
<g>
</g>
<g>
</g>
</svg>
